<?xml version="1.0" encoding="UTF-8" ?>
<!DOCTYPE svg PUBLIC "-//W3C//DTD SVG 1.1//EN" "http://www.w3.org/Graphics/SVG/1.1/DTD/svg11.dtd">
<svg width="600pt" height="600pt" viewBox="0 0 600 600" version="1.1" xmlns="http://www.w3.org/2000/svg">
  <g id="#cdcdcdff">
    <path fill="#cdcdcd" opacity="1.00" d=" M 47.41 0.00 L 552.49 0.00 C 565.20 0.74 577.60 6.31 586.32 15.65 C 594.32 23.97 599.00 35.13 600.00 46.58 L 600.00 555.50 C 598.36 568.34 591.95 580.56 581.85 588.74 C 574.43 594.99 565.11 598.66 555.55 600.00 L 44.54 600.00 C 32.15 598.43 20.32 592.44 12.17 582.92 C 5.40 575.31 1.39 565.56 0.00 555.54 L 0.00 47.35 C 0.77 34.93 6.14 22.83 15.13 14.18 C 23.70 5.72 35.43 0.76 47.41 0.00 M 37.08 12.03 C 21.36 17.36 9.46 33.22 10.00 50.00 C 10.06 89.77 9.86 129.54 10.11 169.30 C 11.95 167.73 13.54 165.90 15.21 164.16 C 24.57 154.86 37.81 149.75 50.98 150.00 C 216.33 150.00 381.67 150.01 547.02 149.99 C 558.72 149.53 570.63 152.88 579.99 160.01 C 583.72 162.62 586.52 166.25 589.88 169.27 C 590.14 129.19 589.96 89.10 589.99 49.02 C 590.21 28.46 571.59 9.83 551.03 10.02 C 386.01 9.97 220.99 10.02 55.97 9.99 C 49.64 9.96 43.09 9.66 37.08 12.03 M 43.26 160.39 C 25.02 163.35 9.78 180.33 10.01 199.01 C 9.99 316.34 10.00 433.67 10.00 551.00 C 9.75 571.56 28.38 590.23 48.94 590.00 C 216.29 590.00 383.65 590.01 551.00 590.00 C 571.60 590.27 590.25 571.57 590.01 551.00 C 590.00 433.64 590.00 316.29 590.01 198.93 C 590.22 178.40 571.61 159.82 551.09 159.99 C 383.72 160.00 216.36 159.99 49.00 160.00 C 47.08 160.03 45.16 160.12 43.26 160.39 Z"
    />
    <path fill="#cdcdcd" opacity="1.00" d=" M 185.35 270.26 C 212.55 269.81 239.78 270.19 266.99 270.07 C 319.65 270.05 372.31 270.06 424.98 270.08 C 425.13 314.03 425.00 357.99 425.04 401.94 C 425.28 417.11 422.51 432.68 414.90 445.96 C 407.77 458.50 396.51 468.59 383.35 474.46 C 371.36 479.91 358.11 482.11 345.01 482.40 C 332.11 482.69 319.00 481.57 306.73 477.37 C 296.81 473.96 287.42 469.05 278.86 463.01 C 284.77 452.85 291.09 442.91 297.24 432.89 C 305.05 437.56 313.06 442.27 322.07 444.19 C 330.85 446.01 340.08 446.76 348.90 444.76 C 358.43 442.52 366.98 436.00 371.23 427.13 C 375.24 419.08 376.02 409.90 375.96 401.03 C 375.92 369.39 376.03 337.74 375.91 306.09 C 355.91 305.97 335.92 306.08 315.93 306.05 C 313.60 305.99 311.36 305.26 309.04 305.18 C 284.39 305.14 259.73 305.22 235.08 305.14 C 234.77 323.43 234.98 341.74 234.98 360.04 C 259.18 360.22 283.39 359.81 307.58 360.24 C 307.40 372.01 307.55 383.77 307.50 395.54 C 283.32 395.54 259.13 395.35 234.95 395.63 C 234.91 423.08 234.95 450.52 234.93 477.96 C 218.40 477.90 201.85 478.25 185.33 477.79 C 185.52 408.61 185.48 339.43 185.35 270.26 Z"
    />
  </g>
  <g id="#efefefff">
    <path fill="#efefef" opacity="1.00" d=" M 37.08 12.03 C 43.09 9.66 49.64 9.96 55.97 9.99 C 220.99 10.02 386.01 9.97 551.03 10.02 C 571.59 9.83 590.21 28.46 589.99 49.02 C 589.96 89.10 590.14 129.19 589.88 169.27 C 586.52 166.25 583.72 162.62 579.99 160.01 C 570.63 152.88 558.72 149.53 547.02 149.99 C 381.67 150.01 216.33 150.00 50.98 150.00 C 37.81 149.75 24.57 154.86 15.21 164.16 C 13.54 165.90 11.95 167.73 10.11 169.30 C 9.86 129.54 10.06 89.77 10.00 50.00 C 9.46 33.22 21.36 17.36 37.08 12.03 M 370.42 48.61 C 353.77 51.56 340.34 67.01 340.01 83.96 C 339.53 93.61 343.04 103.36 349.54 110.51 C 357.05 119.08 368.65 123.84 380.03 122.97 C 398.24 122.14 414.14 106.17 414.97 87.97 C 415.82 76.60 411.03 65.04 402.47 57.52 C 393.96 49.72 381.73 46.39 370.42 48.61 M 490.49 48.64 C 477.57 50.98 466.36 60.69 462.10 73.08 C 459.89 79.40 459.31 86.32 460.74 92.88 C 463.31 106.64 474.36 118.36 487.94 121.78 C 503.39 126.18 521.01 119.06 529.31 105.36 C 536.32 94.41 536.91 79.76 530.83 68.27 C 523.55 53.86 506.36 45.29 490.49 48.64 Z"
    />
  </g>
  <g id="#008a35ff">
    <path fill="#008a35" opacity="1.00" d=" M 370.42 48.61 C 381.73 46.39 393.96 49.72 402.47 57.52 C 411.03 65.04 415.82 76.60 414.97 87.97 C 414.14 106.17 398.24 122.14 380.03 122.97 C 368.65 123.84 357.05 119.08 349.54 110.51 C 343.04 103.36 339.53 93.61 340.01 83.96 C 340.34 67.01 353.77 51.56 370.42 48.61 M 371.43 58.51 C 359.23 61.36 349.23 73.24 350.03 86.01 C 349.70 100.63 363.42 113.87 378.03 112.99 C 392.63 113.30 405.82 99.60 404.99 85.01 C 405.29 74.43 398.04 64.68 388.69 60.30 C 383.37 57.63 377.17 57.68 371.43 58.51 Z"
    />
  </g>
  <g id="#ea8d00ff">
    <path fill="#ea8d00" opacity="1.00" d=" M 490.49 48.64 C 506.36 45.29 523.55 53.86 530.83 68.27 C 536.91 79.76 536.32 94.41 529.31 105.36 C 521.01 119.06 503.39 126.18 487.94 121.78 C 474.36 118.36 463.31 106.64 460.74 92.88 C 459.31 86.32 459.89 79.40 462.10 73.08 C 466.36 60.69 477.57 50.98 490.49 48.64 M 491.36 58.47 C 479.25 61.43 469.13 73.24 470.00 86.02 C 469.64 96.62 476.96 106.34 486.31 110.73 C 491.41 113.44 497.40 113.25 502.98 112.68 C 511.57 110.83 519.05 104.61 522.74 96.68 C 525.33 91.57 525.31 85.63 524.67 80.07 C 523.02 71.93 517.26 64.96 510.12 60.93 C 504.45 57.68 497.66 57.55 491.36 58.47 Z"
    />
  </g>
  <g id="#00cd63ff">
    <path fill="#00cd63" opacity="1.00" d=" M 371.43 58.51 C 377.17 57.68 383.37 57.63 388.69 60.30 C 398.04 64.68 405.29 74.43 404.99 85.01 C 405.82 99.60 392.63 113.30 378.03 112.99 C 363.42 113.87 349.70 100.63 350.03 86.01 C 349.23 73.24 359.23 61.36 371.43 58.51 Z"
    />
  </g>
  <g id="#ffba00ff">
    <path fill="#ffba00" opacity="1.00" d=" M 491.36 58.47 C 497.66 57.55 504.45 57.68 510.12 60.93 C 517.26 64.96 523.02 71.93 524.67 80.07 C 525.31 85.63 525.33 91.57 522.74 96.68 C 519.05 104.61 511.57 110.83 502.98 112.68 C 497.40 113.25 491.41 113.44 486.31 110.73 C 476.96 106.34 469.64 96.62 470.00 86.02 C 469.13 73.24 479.25 61.43 491.36 58.47 Z"
    />
  </g>
  <g id="#fbfbfbff">
    <path fill="#fbfbfb" opacity="1.00" d=" M 43.26 160.39 C 45.16 160.12 47.08 160.03 49.00 160.00 C 216.36 159.99 383.72 160.00 551.09 159.99 C 571.61 159.82 590.22 178.40 590.01 198.93 C 590.00 316.29 590.00 433.64 590.01 551.00 C 590.25 571.57 571.60 590.27 551.00 590.00 C 383.65 590.01 216.29 590.00 48.94 590.00 C 28.38 590.23 9.75 571.56 10.00 551.00 C 10.00 433.67 9.99 316.34 10.01 199.01 C 9.78 180.33 25.02 163.35 43.26 160.39 M 185.35 270.26 C 185.48 339.43 185.52 408.61 185.33 477.79 C 201.85 478.25 218.40 477.90 234.93 477.96 C 234.95 450.52 234.91 423.08 234.95 395.63 C 259.13 395.35 283.32 395.54 307.50 395.54 C 307.55 383.77 307.40 372.01 307.58 360.24 C 283.39 359.81 259.18 360.22 234.98 360.04 C 234.98 341.74 234.77 323.43 235.08 305.14 C 259.73 305.22 284.39 305.14 309.04 305.18 C 311.36 305.26 313.60 305.99 315.93 306.05 C 335.92 306.08 355.91 305.97 375.91 306.09 C 376.03 337.74 375.92 369.39 375.96 401.03 C 376.02 409.90 375.24 419.08 371.23 427.13 C 366.98 436.00 358.43 442.52 348.90 444.76 C 340.08 446.76 330.85 446.01 322.07 444.19 C 313.06 442.27 305.05 437.56 297.24 432.89 C 291.09 442.91 284.77 452.85 278.86 463.01 C 287.42 469.05 296.81 473.96 306.73 477.37 C 319.00 481.57 332.11 482.69 345.01 482.40 C 358.11 482.11 371.36 479.91 383.35 474.46 C 396.51 468.59 407.77 458.50 414.90 445.96 C 422.51 432.68 425.28 417.11 425.04 401.94 C 425.00 357.99 425.13 314.03 424.98 270.08 C 372.31 270.06 319.65 270.05 266.99 270.07 C 239.78 270.19 212.55 269.81 185.35 270.26 Z"
    />
  </g>
</svg>